<svg width="224" height="48" viewBox="0 0 224 48" fill="none" xmlns="http://www.w3.org/2000/svg">
<path d="M61.64 27V26.68L62.28 26.456C63.0053 26.2213 63.368 25.6133 63.368 24.632V8.248C63.368 7.82133 63.3147 7.48 63.208 7.224C63.1227 6.968 62.8773 6.75467 62.472 6.584L61.64 6.2V5.88H67.816L73.736 21.368L79.304 5.88H85.608V6.2L85.096 6.392C84.6907 6.54133 84.4133 6.75467 84.264 7.032C84.1147 7.288 84.04 7.62933 84.04 8.056V24.792C84.04 25.2187 84.0933 25.5493 84.2 25.784C84.3067 26.0187 84.5627 26.2213 84.968 26.392L85.608 26.68V27H77.64V26.68L78.312 26.392C78.7173 26.2213 78.9733 26.0187 79.08 25.784C79.1867 25.5493 79.24 25.2187 79.24 24.792V17.592L79.304 8.44L72.616 27H71.016L64.04 8.664L64.136 16.632V24.696C64.136 25.1653 64.2 25.5493 64.328 25.848C64.4773 26.1253 64.7547 26.328 65.16 26.456L65.864 26.68V27H61.64ZM89.7925 9.464C89.0672 9.464 88.4485 9.24 87.9365 8.792C87.4458 8.32267 87.2005 7.736 87.2005 7.032C87.2005 6.30667 87.4458 5.72 87.9365 5.272C88.4485 4.824 89.0672 4.6 89.7925 4.6C90.5178 4.6 91.1258 4.824 91.6165 5.272C92.1072 5.72 92.3525 6.30667 92.3525 7.032C92.3525 7.736 92.1072 8.32267 91.6165 8.792C91.1258 9.24 90.5178 9.464 89.7925 9.464ZM86.0165 27V26.68L86.4645 26.552C86.8912 26.424 87.1792 26.232 87.3285 25.976C87.4992 25.72 87.5845 25.3787 87.5845 24.952V14.936C87.5845 14.488 87.4992 14.1573 87.3285 13.944C87.1792 13.7093 86.8912 13.5493 86.4645 13.464L86.0165 13.368V13.048L91.8725 11.16L92.1925 11.48L92.0965 16.024V24.984C92.0965 25.4107 92.1712 25.752 92.3205 26.008C92.4912 26.264 92.7792 26.456 93.1845 26.584L93.5045 26.68V27H86.0165ZM93.9853 27V26.68L94.4653 26.52C95.1906 26.2853 95.5533 25.7627 95.5533 24.952V7.832C95.5533 7.40533 95.4679 7.08533 95.2973 6.872C95.1266 6.65867 94.8279 6.488 94.4013 6.36L93.9853 6.264V5.944L99.8413 4.568L100.225 4.856L100.129 9.336V24.952C100.129 25.8053 100.481 26.3387 101.185 26.552L101.633 26.68V27H93.9853ZM105.857 27L100.161 19L106.081 13.528C106.359 13.272 106.519 13.0053 106.561 12.728C106.625 12.4293 106.444 12.216 106.017 12.088L105.473 11.928V11.608H110.241V11.928L109.281 12.184C108.812 12.3333 108.428 12.5147 108.129 12.728C107.852 12.92 107.511 13.1973 107.105 13.56L103.521 16.92L109.249 24.888C109.591 25.3573 109.911 25.72 110.209 25.976C110.508 26.232 110.892 26.4453 111.361 26.616L111.489 26.68V27H105.857ZM118.953 11.128C120.34 11.128 121.524 11.416 122.505 11.992C123.487 12.5467 124.233 13.3147 124.745 14.296C125.279 15.256 125.545 16.3547 125.545 17.592C125.545 17.8267 125.535 18.072 125.513 18.328C125.492 18.5627 125.449 18.776 125.385 18.968H115.849C115.871 21.272 116.276 22.936 117.065 23.96C117.876 24.9627 119.071 25.464 120.649 25.464C121.716 25.464 122.58 25.2933 123.241 24.952C123.903 24.6107 124.521 24.1093 125.097 23.448L125.417 23.736C124.756 24.9093 123.871 25.8267 122.761 26.488C121.673 27.1493 120.361 27.48 118.825 27.48C117.311 27.48 115.967 27.16 114.793 26.52C113.62 25.8587 112.703 24.92 112.041 23.704C111.38 22.488 111.049 21.0373 111.049 19.352C111.049 17.6027 111.433 16.12 112.201 14.904C112.969 13.6667 113.951 12.728 115.145 12.088C116.361 11.448 117.631 11.128 118.953 11.128ZM118.857 11.768C118.239 11.768 117.705 11.96 117.257 12.344C116.831 12.7067 116.489 13.368 116.233 14.328C115.999 15.2667 115.871 16.6 115.849 18.328H121.321C121.535 16.0027 121.449 14.328 121.065 13.304C120.681 12.28 119.945 11.768 118.857 11.768ZM138.861 27.48C137.453 27.48 136.247 27.224 135.245 26.712C134.263 26.1787 133.517 25.4853 133.005 24.632C132.493 23.7787 132.237 22.8293 132.237 21.784C132.237 19.2027 133.901 17.2187 137.229 15.832C136.631 15.0213 136.098 14.2 135.629 13.368C135.181 12.536 134.957 11.5653 134.957 10.456C134.957 8.94133 135.49 7.736 136.557 6.84C137.645 5.92267 139.063 5.464 140.813 5.464C142.519 5.464 143.842 5.848 144.781 6.616C145.719 7.36267 146.189 8.35467 146.189 9.592C146.189 10.6373 145.762 11.5547 144.909 12.344C144.055 13.1333 142.839 13.8587 141.261 14.52C141.666 14.968 142.082 15.448 142.509 15.96C142.957 16.4507 143.415 16.9413 143.885 17.432C144.461 18.072 145.015 18.68 145.549 19.256C146.103 19.832 146.658 20.4293 147.213 21.048C147.725 20.344 148.205 19.4907 148.653 18.488C149.101 17.4853 149.453 16.4293 149.709 15.32C149.879 14.5093 149.57 13.9867 148.781 13.752L148.557 13.656V13.336H152.173V13.656L151.885 13.752C151.181 13.9867 150.722 14.4773 150.509 15.224C150.189 16.4187 149.794 17.5493 149.325 18.616C148.855 19.6827 148.311 20.6533 147.693 21.528L151.117 25.144C151.394 25.4427 151.671 25.688 151.949 25.88C152.226 26.072 152.535 26.264 152.877 26.456L153.325 26.68V27H146.861L144.717 24.696C144.311 25.144 143.853 25.5813 143.341 26.008C142.829 26.4347 142.21 26.7867 141.485 27.064C140.759 27.3413 139.885 27.48 138.861 27.48ZM140.877 14.104C141.709 13.3573 142.306 12.6107 142.669 11.864C143.053 11.096 143.245 10.2533 143.245 9.336C143.245 8.504 143.031 7.832 142.605 7.32C142.178 6.78667 141.591 6.52 140.845 6.52C140.141 6.52 139.554 6.776 139.085 7.288C138.615 7.8 138.381 8.45067 138.381 9.24C138.381 9.73067 138.466 10.2427 138.637 10.776C138.829 11.3093 139.159 11.9173 139.629 12.6C139.757 12.7707 139.927 12.9733 140.141 13.208C140.354 13.4427 140.599 13.7413 140.877 14.104ZM140.717 25.336C141.463 25.336 142.135 25.2293 142.733 25.016C143.33 24.7813 143.842 24.4933 144.269 24.152C143.757 23.576 143.223 22.9787 142.669 22.36C142.114 21.72 141.591 21.112 141.101 20.536C140.503 19.832 139.917 19.128 139.341 18.424C138.786 17.72 138.231 17.0373 137.677 16.376C137.122 16.888 136.717 17.4853 136.461 18.168C136.205 18.8507 136.077 19.5653 136.077 20.312C136.077 21.7627 136.503 22.968 137.357 23.928C138.231 24.8667 139.351 25.336 140.717 25.336ZM162.988 27.576C161.943 27.576 161.132 27.3733 160.556 26.968C160.001 26.5627 159.724 26.0187 159.724 25.336C159.724 24.7387 159.927 24.28 160.332 23.96C160.759 23.64 161.249 23.48 161.804 23.48C162.359 23.48 162.849 23.608 163.276 23.864C163.703 24.0987 164.097 24.5147 164.46 25.112L165.036 26.104C165.143 26.2533 165.271 26.328 165.42 26.328C165.591 26.328 165.708 26.232 165.772 26.04C165.9 25.6133 165.985 24.9947 166.028 24.184C166.092 23.352 166.124 22.3493 166.124 21.176C166.124 19.832 166.092 18.104 166.028 15.992C165.964 13.88 165.9 11.2773 165.836 8.184C165.836 7.26667 165.495 6.69067 164.812 6.456L164.076 6.2V5.88H172.46V6.2L171.756 6.456C171.372 6.60533 171.105 6.808 170.956 7.064C170.828 7.29867 170.764 7.64 170.764 8.088V14.424C170.764 16.5147 170.668 18.2427 170.476 19.608C170.284 20.9733 169.975 22.1573 169.548 23.16C169.015 24.5893 168.14 25.688 166.924 26.456C165.729 27.2027 164.417 27.576 162.988 27.576ZM180.049 27.48C178.427 27.48 177.019 27.1493 175.825 26.488C174.63 25.8053 173.702 24.8453 173.041 23.608C172.401 22.3707 172.081 20.92 172.081 19.256C172.081 17.592 172.422 16.152 173.105 14.936C173.809 13.72 174.758 12.7813 175.953 12.12C177.169 11.4587 178.534 11.128 180.049 11.128C181.563 11.128 182.918 11.4587 184.113 12.12C185.307 12.76 186.246 13.688 186.929 14.904C187.633 16.12 187.985 17.5707 187.985 19.256C187.985 20.9413 187.654 22.4027 186.993 23.64C186.353 24.856 185.435 25.8053 184.241 26.488C183.067 27.1493 181.67 27.48 180.049 27.48ZM180.049 26.84C180.795 26.84 181.393 26.6267 181.841 26.2C182.289 25.7733 182.609 25.016 182.801 23.928C183.014 22.84 183.121 21.304 183.121 19.32C183.121 17.3147 183.014 15.768 182.801 14.68C182.609 13.592 182.289 12.8347 181.841 12.408C181.393 11.9813 180.795 11.768 180.049 11.768C179.302 11.768 178.694 11.9813 178.225 12.408C177.777 12.8347 177.446 13.592 177.233 14.68C177.041 15.768 176.945 17.3147 176.945 19.32C176.945 21.304 177.041 22.84 177.233 23.928C177.446 25.016 177.777 25.7733 178.225 26.2C178.694 26.6267 179.302 26.84 180.049 26.84ZM188.361 27V26.68L188.745 26.552C189.513 26.296 189.897 25.7627 189.897 24.952V7.864C189.897 7.416 189.822 7.08533 189.673 6.872C189.524 6.65867 189.236 6.49866 188.809 6.392L188.329 6.264V5.944L193.961 4.568L194.473 4.856L194.345 9.368V13.368C195.092 12.7493 195.892 12.2267 196.745 11.8C197.62 11.352 198.58 11.128 199.625 11.128C201.012 11.128 202.11 11.5227 202.921 12.312C203.753 13.1013 204.169 14.3173 204.169 15.96V24.984C204.169 25.4107 204.254 25.752 204.425 26.008C204.596 26.264 204.894 26.456 205.321 26.584L205.577 26.68V27H198.089V26.68L198.473 26.584C199.241 26.328 199.625 25.784 199.625 24.952V14.904C199.625 14.0507 199.476 13.464 199.177 13.144C198.9 12.824 198.398 12.664 197.673 12.664C197.204 12.664 196.692 12.76 196.137 12.952C195.582 13.1227 195.017 13.432 194.441 13.88V25.016C194.441 25.848 194.825 26.3813 195.593 26.616L195.849 26.68V27H188.361ZM205.828 27V26.68L206.276 26.552C207.022 26.3387 207.396 25.816 207.396 24.984V14.968C207.396 14.4987 207.321 14.1573 207.172 13.944C207.022 13.7093 206.734 13.5493 206.308 13.464L205.828 13.336V13.016L211.3 11.16L211.62 11.48L211.876 13.4C212.622 12.7387 213.465 12.1947 214.404 11.768C215.342 11.3413 216.27 11.128 217.188 11.128C218.596 11.128 219.673 11.512 220.42 12.28C221.188 13.048 221.572 14.2213 221.572 15.8V25.016C221.572 25.848 221.977 26.3707 222.788 26.584L223.076 26.68V27H215.524V26.68L215.94 26.552C216.686 26.3173 217.06 25.7947 217.06 24.984V14.776C217.06 13.4107 216.377 12.728 215.012 12.728C214.073 12.728 213.049 13.1973 211.94 14.136V25.016C211.94 25.848 212.313 26.3707 213.06 26.584L213.348 26.68V27H205.828Z" fill="white"/>
<path d="M61.9 43V36.44H62.73V43H61.9ZM65.727 43V36.44H66.587L68.957 40.56L69.667 41.92H69.707C69.687 41.5867 69.6636 41.2433 69.637 40.89C69.617 40.53 69.607 40.1767 69.607 39.83V36.44H70.397V43H69.537L67.157 38.87L66.447 37.52H66.407C66.4336 37.8533 66.457 38.1933 66.477 38.54C66.5036 38.88 66.517 39.2233 66.517 39.57V43H65.727ZM74.6216 43.12C73.8016 43.12 73.1982 42.77 72.8116 42.07L73.4116 41.65C73.5582 41.91 73.7249 42.1 73.9116 42.22C74.0982 42.3333 74.3082 42.39 74.5416 42.39C74.8949 42.39 75.1582 42.2833 75.3316 42.07C75.5049 41.85 75.5916 41.49 75.5916 40.99V36.44H76.4316V41.07C76.4316 41.35 76.3949 41.6167 76.3216 41.87C76.2549 42.1167 76.1482 42.3333 76.0016 42.52C75.8616 42.7067 75.6749 42.8533 75.4416 42.96C75.2149 43.0667 74.9416 43.12 74.6216 43.12ZM81.7363 43.12C81.4029 43.12 81.0896 43.0733 80.7963 42.98C80.5096 42.88 80.2596 42.72 80.0463 42.5C79.8396 42.2733 79.6763 41.98 79.5563 41.62C79.4363 41.26 79.3763 40.8167 79.3763 40.29V36.44H80.2063V40.31C80.2063 40.7033 80.2463 41.0333 80.3263 41.3C80.4063 41.5667 80.5129 41.78 80.6463 41.94C80.7863 42.1 80.9496 42.2167 81.1363 42.29C81.3229 42.3567 81.5229 42.39 81.7363 42.39C81.9563 42.39 82.1596 42.3567 82.3463 42.29C82.5329 42.2167 82.6963 42.1 82.8363 41.94C82.9763 41.78 83.0863 41.5667 83.1663 41.3C83.2463 41.0333 83.2863 40.7033 83.2863 40.31V36.44H84.0863V40.29C84.0863 40.8167 84.0263 41.26 83.9063 41.62C83.7863 41.98 83.6196 42.2733 83.4063 42.5C83.1996 42.72 82.9529 42.88 82.6663 42.98C82.3796 43.0733 82.0696 43.12 81.7363 43.12ZM87.0516 43V36.44H89.1016C89.4349 36.44 89.7416 36.4733 90.0216 36.54C90.3082 36.6 90.5516 36.7033 90.7516 36.85C90.9582 36.9967 91.1182 37.1867 91.2316 37.42C91.3449 37.6533 91.4016 37.94 91.4016 38.28C91.4016 38.7933 91.2682 39.2033 91.0016 39.51C90.7349 39.8167 90.3749 40.0267 89.9216 40.14L91.5916 43H90.6516L89.0716 40.23H87.8816V43H87.0516ZM87.8816 39.55H88.9816C89.4949 39.55 89.8882 39.4467 90.1616 39.24C90.4349 39.0267 90.5716 38.7067 90.5716 38.28C90.5716 37.8467 90.4349 37.5433 90.1616 37.37C89.8882 37.1967 89.4949 37.11 88.9816 37.11H87.8816V39.55ZM95.0049 43V40.46L93.0349 36.44H93.9249L94.7749 38.29C94.8816 38.53 94.9849 38.7667 95.0849 39C95.1849 39.2333 95.2916 39.4733 95.4049 39.72H95.4449C95.5583 39.4733 95.6716 39.2333 95.7849 39C95.8983 38.7667 96.0049 38.53 96.1049 38.29L96.9449 36.44H97.8149L95.8449 40.46V43H95.0049ZM104.523 43.12C104.223 43.12 103.949 43.0767 103.703 42.99C103.463 42.8967 103.253 42.77 103.073 42.61C102.899 42.45 102.763 42.26 102.663 42.04C102.569 41.8133 102.523 41.5667 102.523 41.3C102.523 41.08 102.556 40.88 102.623 40.7C102.696 40.52 102.793 40.3533 102.913 40.2C103.033 40.0467 103.169 39.9067 103.323 39.78C103.483 39.6467 103.646 39.5233 103.813 39.41C103.679 39.1367 103.573 38.8733 103.493 38.62C103.419 38.36 103.383 38.11 103.383 37.87C103.383 37.65 103.419 37.4467 103.493 37.26C103.566 37.0733 103.669 36.91 103.803 36.77C103.936 36.63 104.096 36.52 104.283 36.44C104.469 36.36 104.676 36.32 104.903 36.32C105.309 36.32 105.626 36.44 105.853 36.68C106.079 36.92 106.193 37.2333 106.193 37.62C106.193 37.8333 106.149 38.03 106.063 38.21C105.976 38.39 105.863 38.56 105.723 38.72C105.583 38.8733 105.423 39.02 105.243 39.16C105.069 39.2933 104.893 39.4267 104.713 39.56C104.926 39.9 105.176 40.2267 105.463 40.54C105.756 40.8533 106.059 41.14 106.373 41.4C106.573 41.1267 106.749 40.83 106.903 40.51C107.063 40.19 107.193 39.84 107.293 39.46H108.063C107.929 39.8933 107.769 40.3067 107.583 40.7C107.396 41.0933 107.173 41.4633 106.913 41.81C107.139 41.9633 107.356 42.0933 107.563 42.2C107.769 42.3067 107.963 42.3867 108.143 42.44L107.923 43.12C107.689 43.0533 107.446 42.96 107.193 42.84C106.939 42.7133 106.679 42.5567 106.413 42.37C106.159 42.5967 105.876 42.78 105.563 42.92C105.256 43.0533 104.909 43.12 104.523 43.12ZM104.093 37.86C104.093 38.04 104.119 38.2267 104.173 38.42C104.233 38.6133 104.309 38.81 104.403 39.01C104.549 38.91 104.689 38.81 104.823 38.71C104.963 38.6033 105.083 38.4967 105.183 38.39C105.289 38.2767 105.373 38.16 105.433 38.04C105.493 37.9133 105.523 37.7767 105.523 37.63C105.523 37.4367 105.473 37.27 105.373 37.13C105.279 36.9833 105.123 36.91 104.903 36.91C104.656 36.91 104.459 37 104.313 37.18C104.166 37.36 104.093 37.5867 104.093 37.86ZM104.613 42.46C104.839 42.46 105.056 42.4133 105.263 42.32C105.469 42.2267 105.669 42.0967 105.863 41.93C105.543 41.65 105.233 41.3467 104.933 41.02C104.639 40.6867 104.376 40.34 104.143 39.98C103.909 40.1667 103.713 40.3633 103.553 40.57C103.399 40.77 103.323 40.9967 103.323 41.25C103.323 41.43 103.356 41.5967 103.423 41.75C103.489 41.8967 103.579 42.0233 103.693 42.13C103.813 42.2367 103.949 42.32 104.103 42.38C104.263 42.4333 104.433 42.46 104.613 42.46ZM114.728 39.33L114.418 40.33H116.388L116.078 39.33C115.958 38.9633 115.845 38.6 115.738 38.24C115.632 37.8733 115.525 37.5 115.418 37.12H115.378C115.278 37.5 115.175 37.8733 115.068 38.24C114.962 38.6 114.848 38.9633 114.728 39.33ZM112.728 43L114.948 36.44H115.888L118.108 43H117.218L116.598 41H114.208L113.578 43H112.728ZM122.62 43.12C122.207 43.12 121.827 43.0433 121.48 42.89C121.134 42.7367 120.83 42.5167 120.57 42.23C120.317 41.9367 120.117 41.58 119.97 41.16C119.83 40.7333 119.76 40.2533 119.76 39.72C119.76 39.1933 119.834 38.72 119.98 38.3C120.127 37.88 120.33 37.5233 120.59 37.23C120.85 36.9367 121.157 36.7133 121.51 36.56C121.864 36.4 122.25 36.32 122.67 36.32C123.07 36.32 123.42 36.4033 123.72 36.57C124.027 36.73 124.277 36.9167 124.47 37.13L124.02 37.67C123.847 37.4833 123.65 37.3333 123.43 37.22C123.21 37.1067 122.96 37.05 122.68 37.05C122.367 37.05 122.084 37.1133 121.83 37.24C121.577 37.36 121.36 37.5367 121.18 37.77C121 37.9967 120.86 38.2733 120.76 38.6C120.667 38.9267 120.62 39.2933 120.62 39.7C120.62 40.1133 120.667 40.4867 120.76 40.82C120.86 41.1467 120.997 41.4267 121.17 41.66C121.344 41.8933 121.554 42.0733 121.8 42.2C122.054 42.3267 122.337 42.39 122.65 42.39C122.97 42.39 123.25 42.3267 123.49 42.2C123.73 42.0667 123.957 41.8833 124.17 41.65L124.63 42.17C124.37 42.47 124.077 42.7033 123.75 42.87C123.424 43.0367 123.047 43.12 122.62 43.12ZM129.24 43.12C128.827 43.12 128.447 43.0433 128.1 42.89C127.753 42.7367 127.45 42.5167 127.19 42.23C126.937 41.9367 126.737 41.58 126.59 41.16C126.45 40.7333 126.38 40.2533 126.38 39.72C126.38 39.1933 126.453 38.72 126.6 38.3C126.747 37.88 126.95 37.5233 127.21 37.23C127.47 36.9367 127.777 36.7133 128.13 36.56C128.483 36.4 128.87 36.32 129.29 36.32C129.69 36.32 130.04 36.4033 130.34 36.57C130.647 36.73 130.897 36.9167 131.09 37.13L130.64 37.67C130.467 37.4833 130.27 37.3333 130.05 37.22C129.83 37.1067 129.58 37.05 129.3 37.05C128.987 37.05 128.703 37.1133 128.45 37.24C128.197 37.36 127.98 37.5367 127.8 37.77C127.62 37.9967 127.48 38.2733 127.38 38.6C127.287 38.9267 127.24 39.2933 127.24 39.7C127.24 40.1133 127.287 40.4867 127.38 40.82C127.48 41.1467 127.617 41.4267 127.79 41.66C127.963 41.8933 128.173 42.0733 128.42 42.2C128.673 42.3267 128.957 42.39 129.27 42.39C129.59 42.39 129.87 42.3267 130.11 42.2C130.35 42.0667 130.577 41.8833 130.79 41.65L131.25 42.17C130.99 42.47 130.697 42.7033 130.37 42.87C130.043 43.0367 129.667 43.12 129.24 43.12ZM133.673 43V36.44H134.503V43H133.673ZM137.5 43V36.44H139.14C140.153 36.44 140.923 36.72 141.45 37.28C141.977 37.84 142.24 38.6433 142.24 39.69C142.24 40.21 142.173 40.6767 142.04 41.09C141.907 41.4967 141.71 41.8433 141.45 42.13C141.19 42.41 140.87 42.6267 140.49 42.78C140.11 42.9267 139.673 43 139.18 43H137.5ZM138.33 42.32H139.08C139.847 42.32 140.42 42.09 140.8 41.63C141.187 41.17 141.38 40.5233 141.38 39.69C141.38 38.8567 141.187 38.22 140.8 37.78C140.42 37.34 139.847 37.12 139.08 37.12H138.33V42.32ZM144.852 43V36.44H148.632V37.14H145.682V39.2H148.172V39.91H145.682V42.29H148.732V43H144.852ZM151.326 43V36.44H152.186L154.556 40.56L155.266 41.92H155.306C155.286 41.5867 155.262 41.2433 155.236 40.89C155.216 40.53 155.206 40.1767 155.206 39.83V36.44H155.996V43H155.136L152.756 38.87L152.046 37.52H152.006C152.032 37.8533 152.056 38.1933 152.076 38.54C152.102 38.88 152.116 39.2233 152.116 39.57V43H151.326ZM160.36 43V37.14H158.38V36.44H163.18V37.14H161.2V43H160.36ZM168.764 43V36.44H169.594V42.29H172.464V43H168.764ZM175.986 39.33L175.676 40.33H177.646L177.336 39.33C177.216 38.9633 177.103 38.6 176.996 38.24C176.89 37.8733 176.783 37.5 176.676 37.12H176.636C176.536 37.5 176.433 37.8733 176.326 38.24C176.22 38.6 176.106 38.9633 175.986 39.33ZM173.986 43L176.206 36.44H177.146L179.366 43H178.476L177.856 41H175.466L174.836 43H173.986ZM182.216 43L180.826 36.44H181.686L182.376 40.01C182.436 40.37 182.499 40.7233 182.566 41.07C182.632 41.4167 182.696 41.77 182.756 42.13H182.796C182.869 41.77 182.946 41.4167 183.026 41.07C183.106 40.7167 183.182 40.3633 183.256 40.01L184.166 36.44H184.926L185.836 40.01C185.916 40.3567 185.996 40.7067 186.076 41.06C186.156 41.4133 186.236 41.77 186.316 42.13H186.356C186.416 41.77 186.476 41.4167 186.536 41.07C186.596 40.7167 186.659 40.3633 186.726 40.01L187.416 36.44H188.216L186.856 43H185.856L184.866 39.05C184.806 38.7967 184.749 38.55 184.696 38.31C184.649 38.0633 184.599 37.8133 184.546 37.56H184.506C184.452 37.8133 184.396 38.0633 184.336 38.31C184.282 38.55 184.229 38.7967 184.176 39.05L183.206 43H182.216ZM191.617 43V40.46L189.647 36.44H190.537L191.387 38.29C191.494 38.53 191.597 38.7667 191.697 39C191.797 39.2333 191.904 39.4733 192.017 39.72H192.057C192.17 39.4733 192.284 39.2333 192.397 39C192.51 38.7667 192.617 38.53 192.717 38.29L193.557 36.44H194.427L192.457 40.46V43H191.617ZM196.513 43V36.44H200.293V37.14H197.343V39.2H199.833V39.91H197.343V42.29H200.393V43H196.513ZM202.986 43V36.44H205.036C205.37 36.44 205.676 36.4733 205.956 36.54C206.243 36.6 206.486 36.7033 206.686 36.85C206.893 36.9967 207.053 37.1867 207.166 37.42C207.28 37.6533 207.336 37.94 207.336 38.28C207.336 38.7933 207.203 39.2033 206.936 39.51C206.67 39.8167 206.31 40.0267 205.856 40.14L207.526 43H206.586L205.006 40.23H203.816V43H202.986ZM203.816 39.55H204.916C205.43 39.55 205.823 39.4467 206.096 39.24C206.37 39.0267 206.506 38.7067 206.506 38.28C206.506 37.8467 206.37 37.5433 206.096 37.37C205.823 37.1967 205.43 37.11 204.916 37.11H203.816V39.55ZM211.563 43.12C211.103 43.12 210.676 43.0333 210.283 42.86C209.89 42.6867 209.55 42.45 209.263 42.15L209.763 41.57C209.996 41.8167 210.27 42.0167 210.583 42.17C210.903 42.3167 211.233 42.39 211.573 42.39C212.006 42.39 212.343 42.2933 212.583 42.1C212.823 41.9 212.943 41.64 212.943 41.32C212.943 41.1533 212.913 41.0133 212.853 40.9C212.8 40.78 212.723 40.68 212.623 40.6C212.53 40.5133 212.416 40.4367 212.283 40.37C212.15 40.3033 212.006 40.2333 211.853 40.16L210.913 39.75C210.76 39.6833 210.603 39.6033 210.443 39.51C210.283 39.4167 210.14 39.3033 210.013 39.17C209.886 39.0367 209.783 38.88 209.703 38.7C209.623 38.5133 209.583 38.3 209.583 38.06C209.583 37.8133 209.633 37.5833 209.733 37.37C209.84 37.1567 209.983 36.9733 210.163 36.82C210.35 36.66 210.566 36.5367 210.813 36.45C211.066 36.3633 211.343 36.32 211.643 36.32C212.036 36.32 212.4 36.3967 212.733 36.55C213.066 36.6967 213.35 36.89 213.583 37.13L213.133 37.67C212.933 37.4767 212.71 37.3267 212.463 37.22C212.223 37.1067 211.95 37.05 211.643 37.05C211.276 37.05 210.98 37.1367 210.753 37.31C210.533 37.4767 210.423 37.71 210.423 38.01C210.423 38.17 210.453 38.3067 210.513 38.42C210.58 38.5267 210.666 38.6233 210.773 38.71C210.88 38.79 210.996 38.8633 211.123 38.93C211.25 38.99 211.38 39.0467 211.513 39.1L212.443 39.5C212.63 39.58 212.806 39.6733 212.973 39.78C213.14 39.88 213.283 40 213.403 40.14C213.523 40.2733 213.616 40.4333 213.683 40.62C213.756 40.8 213.793 41.01 213.793 41.25C213.793 41.51 213.74 41.7533 213.633 41.98C213.533 42.2067 213.386 42.4067 213.193 42.58C213 42.7467 212.766 42.88 212.493 42.98C212.22 43.0733 211.91 43.12 211.563 43.12Z" fill="white"/>
<rect width="48" height="48" fill="#981E25"/>
<path d="M6 34.12V33.8L6.64 33.576C7.36533 33.3413 7.728 32.7333 7.728 31.752V15.368C7.728 14.9413 7.67467 14.6 7.568 14.344C7.48267 14.088 7.23733 13.8747 6.832 13.704L6 13.32V13H12.176L18.096 28.488L23.664 13H29.968V13.32L29.456 13.512C29.0507 13.6613 28.7733 13.8747 28.624 14.152C28.4747 14.408 28.4 14.7493 28.4 15.176V31.912C28.4 32.3387 28.4533 32.6693 28.56 32.904C28.6667 33.1387 28.9227 33.3413 29.328 33.512L29.968 33.8V34.12H22V33.8L22.672 33.512C23.0773 33.3413 23.3333 33.1387 23.44 32.904C23.5467 32.6693 23.6 32.3387 23.6 31.912V24.712L23.664 15.56L16.976 34.12H15.376L8.4 15.784L8.496 23.752V31.816C8.496 32.2853 8.56 32.6693 8.688 32.968C8.83733 33.2453 9.11467 33.448 9.52 33.576L10.224 33.8V34.12H6Z" fill="white"/>
<path d="M33.1605 34.696C32.1152 34.696 31.3045 34.4933 30.7285 34.088C30.1738 33.6827 29.8965 33.1387 29.8965 32.456C29.8965 31.8587 30.0992 31.4 30.5045 31.08C30.9312 30.76 31.4218 30.6 31.9765 30.6C32.5312 30.6 33.0218 30.728 33.4485 30.984C33.8752 31.2187 34.2698 31.6347 34.6325 32.232L35.2085 33.224C35.3152 33.3733 35.4432 33.448 35.5925 33.448C35.7632 33.448 35.8805 33.352 35.9445 33.16C36.0725 32.7333 36.1578 32.1147 36.2005 31.304C36.2645 30.472 36.2965 29.4693 36.2965 28.296C36.2965 26.952 36.2645 25.224 36.2005 23.112C36.1365 21 36.0725 18.3973 36.0085 15.304C36.0085 14.3867 35.6672 13.8107 34.9845 13.576L34.2485 13.32V13H42.6325V13.32L41.9285 13.576C41.5445 13.7253 41.2778 13.928 41.1285 14.184C41.0005 14.4187 40.9365 14.76 40.9365 15.208V21.544C40.9365 23.6347 40.8405 25.3627 40.6485 26.728C40.4565 28.0933 40.1472 29.2773 39.7205 30.28C39.1872 31.7093 38.3125 32.808 37.0965 33.576C35.9018 34.3227 34.5898 34.696 33.1605 34.696Z" fill="white"/>
</svg>
