<svg width="224" height="49" viewBox="0 0 224 49" fill="none" xmlns="http://www.w3.org/2000/svg">
<path d="M61.64 27.5V27.18L62.28 26.956C63.0053 26.7213 63.368 26.1133 63.368 25.132V8.748C63.368 8.32133 63.3147 7.98 63.208 7.724C63.1227 7.468 62.8773 7.25467 62.472 7.084L61.64 6.7V6.38H67.816L73.736 21.868L79.304 6.38H85.608V6.7L85.096 6.892C84.6907 7.04133 84.4133 7.25467 84.264 7.532C84.1147 7.788 84.04 8.12933 84.04 8.556V25.292C84.04 25.7187 84.0933 26.0493 84.2 26.284C84.3067 26.5187 84.5627 26.7213 84.968 26.892L85.608 27.18V27.5H77.64V27.18L78.312 26.892C78.7173 26.7213 78.9733 26.5187 79.08 26.284C79.1867 26.0493 79.24 25.7187 79.24 25.292V18.092L79.304 8.94L72.616 27.5H71.016L64.04 9.164L64.136 17.132V25.196C64.136 25.6653 64.2 26.0493 64.328 26.348C64.4773 26.6253 64.7547 26.828 65.16 26.956L65.864 27.18V27.5H61.64ZM89.7925 9.964C89.0672 9.964 88.4485 9.74 87.9365 9.292C87.4458 8.82267 87.2005 8.236 87.2005 7.532C87.2005 6.80667 87.4458 6.22 87.9365 5.772C88.4485 5.324 89.0672 5.1 89.7925 5.1C90.5178 5.1 91.1258 5.324 91.6165 5.772C92.1072 6.22 92.3525 6.80667 92.3525 7.532C92.3525 8.236 92.1072 8.82267 91.6165 9.292C91.1258 9.74 90.5178 9.964 89.7925 9.964ZM86.0165 27.5V27.18L86.4645 27.052C86.8912 26.924 87.1792 26.732 87.3285 26.476C87.4992 26.22 87.5845 25.8787 87.5845 25.452V15.436C87.5845 14.988 87.4992 14.6573 87.3285 14.444C87.1792 14.2093 86.8912 14.0493 86.4645 13.964L86.0165 13.868V13.548L91.8725 11.66L92.1925 11.98L92.0965 16.524V25.484C92.0965 25.9107 92.1712 26.252 92.3205 26.508C92.4912 26.764 92.7792 26.956 93.1845 27.084L93.5045 27.18V27.5H86.0165ZM93.9853 27.5V27.18L94.4653 27.02C95.1906 26.7853 95.5533 26.2627 95.5533 25.452V8.332C95.5533 7.90533 95.4679 7.58533 95.2973 7.372C95.1266 7.15867 94.8279 6.988 94.4013 6.86L93.9853 6.764V6.444L99.8413 5.068L100.225 5.356L100.129 9.836V25.452C100.129 26.3053 100.481 26.8387 101.185 27.052L101.633 27.18V27.5H93.9853ZM105.857 27.5L100.161 19.5L106.081 14.028C106.359 13.772 106.519 13.5053 106.561 13.228C106.625 12.9293 106.444 12.716 106.017 12.588L105.473 12.428V12.108H110.241V12.428L109.281 12.684C108.812 12.8333 108.428 13.0147 108.129 13.228C107.852 13.42 107.511 13.6973 107.105 14.06L103.521 17.42L109.249 25.388C109.591 25.8573 109.911 26.22 110.209 26.476C110.508 26.732 110.892 26.9453 111.361 27.116L111.489 27.18V27.5H105.857ZM118.953 11.628C120.34 11.628 121.524 11.916 122.505 12.492C123.487 13.0467 124.233 13.8147 124.745 14.796C125.279 15.756 125.545 16.8547 125.545 18.092C125.545 18.3267 125.535 18.572 125.513 18.828C125.492 19.0627 125.449 19.276 125.385 19.468H115.849C115.871 21.772 116.276 23.436 117.065 24.46C117.876 25.4627 119.071 25.964 120.649 25.964C121.716 25.964 122.58 25.7933 123.241 25.452C123.903 25.1107 124.521 24.6093 125.097 23.948L125.417 24.236C124.756 25.4093 123.871 26.3267 122.761 26.988C121.673 27.6493 120.361 27.98 118.825 27.98C117.311 27.98 115.967 27.66 114.793 27.02C113.62 26.3587 112.703 25.42 112.041 24.204C111.38 22.988 111.049 21.5373 111.049 19.852C111.049 18.1027 111.433 16.62 112.201 15.404C112.969 14.1667 113.951 13.228 115.145 12.588C116.361 11.948 117.631 11.628 118.953 11.628ZM118.857 12.268C118.239 12.268 117.705 12.46 117.257 12.844C116.831 13.2067 116.489 13.868 116.233 14.828C115.999 15.7667 115.871 17.1 115.849 18.828H121.321C121.535 16.5027 121.449 14.828 121.065 13.804C120.681 12.78 119.945 12.268 118.857 12.268ZM138.861 27.98C137.453 27.98 136.247 27.724 135.245 27.212C134.263 26.6787 133.517 25.9853 133.005 25.132C132.493 24.2787 132.237 23.3293 132.237 22.284C132.237 19.7027 133.901 17.7187 137.229 16.332C136.631 15.5213 136.098 14.7 135.629 13.868C135.181 13.036 134.957 12.0653 134.957 10.956C134.957 9.44133 135.49 8.236 136.557 7.34C137.645 6.42267 139.063 5.964 140.813 5.964C142.519 5.964 143.842 6.348 144.781 7.116C145.719 7.86267 146.189 8.85467 146.189 10.092C146.189 11.1373 145.762 12.0547 144.909 12.844C144.055 13.6333 142.839 14.3587 141.261 15.02C141.666 15.468 142.082 15.948 142.509 16.46C142.957 16.9507 143.415 17.4413 143.885 17.932C144.461 18.572 145.015 19.18 145.549 19.756C146.103 20.332 146.658 20.9293 147.213 21.548C147.725 20.844 148.205 19.9907 148.653 18.988C149.101 17.9853 149.453 16.9293 149.709 15.82C149.879 15.0093 149.57 14.4867 148.781 14.252L148.557 14.156V13.836H152.173V14.156L151.885 14.252C151.181 14.4867 150.722 14.9773 150.509 15.724C150.189 16.9187 149.794 18.0493 149.325 19.116C148.855 20.1827 148.311 21.1533 147.693 22.028L151.117 25.644C151.394 25.9427 151.671 26.188 151.949 26.38C152.226 26.572 152.535 26.764 152.877 26.956L153.325 27.18V27.5H146.861L144.717 25.196C144.311 25.644 143.853 26.0813 143.341 26.508C142.829 26.9347 142.21 27.2867 141.485 27.564C140.759 27.8413 139.885 27.98 138.861 27.98ZM140.877 14.604C141.709 13.8573 142.306 13.1107 142.669 12.364C143.053 11.596 143.245 10.7533 143.245 9.836C143.245 9.004 143.031 8.332 142.605 7.82C142.178 7.28667 141.591 7.02 140.845 7.02C140.141 7.02 139.554 7.276 139.085 7.788C138.615 8.3 138.381 8.95067 138.381 9.74C138.381 10.2307 138.466 10.7427 138.637 11.276C138.829 11.8093 139.159 12.4173 139.629 13.1C139.757 13.2707 139.927 13.4733 140.141 13.708C140.354 13.9427 140.599 14.2413 140.877 14.604ZM140.717 25.836C141.463 25.836 142.135 25.7293 142.733 25.516C143.33 25.2813 143.842 24.9933 144.269 24.652C143.757 24.076 143.223 23.4787 142.669 22.86C142.114 22.22 141.591 21.612 141.101 21.036C140.503 20.332 139.917 19.628 139.341 18.924C138.786 18.22 138.231 17.5373 137.677 16.876C137.122 17.388 136.717 17.9853 136.461 18.668C136.205 19.3507 136.077 20.0653 136.077 20.812C136.077 22.2627 136.503 23.468 137.357 24.428C138.231 25.3667 139.351 25.836 140.717 25.836ZM162.988 28.076C161.943 28.076 161.132 27.8733 160.556 27.468C160.001 27.0627 159.724 26.5187 159.724 25.836C159.724 25.2387 159.927 24.78 160.332 24.46C160.759 24.14 161.249 23.98 161.804 23.98C162.359 23.98 162.849 24.108 163.276 24.364C163.703 24.5987 164.097 25.0147 164.46 25.612L165.036 26.604C165.143 26.7533 165.271 26.828 165.42 26.828C165.591 26.828 165.708 26.732 165.772 26.54C165.9 26.1133 165.985 25.4947 166.028 24.684C166.092 23.852 166.124 22.8493 166.124 21.676C166.124 20.332 166.092 18.604 166.028 16.492C165.964 14.38 165.9 11.7773 165.836 8.684C165.836 7.76667 165.495 7.19067 164.812 6.956L164.076 6.7V6.38H172.46V6.7L171.756 6.956C171.372 7.10533 171.105 7.308 170.956 7.564C170.828 7.79867 170.764 8.14 170.764 8.588V14.924C170.764 17.0147 170.668 18.7427 170.476 20.108C170.284 21.4733 169.975 22.6573 169.548 23.66C169.015 25.0893 168.14 26.188 166.924 26.956C165.729 27.7027 164.417 28.076 162.988 28.076ZM180.049 27.98C178.427 27.98 177.019 27.6493 175.825 26.988C174.63 26.3053 173.702 25.3453 173.041 24.108C172.401 22.8707 172.081 21.42 172.081 19.756C172.081 18.092 172.422 16.652 173.105 15.436C173.809 14.22 174.758 13.2813 175.953 12.62C177.169 11.9587 178.534 11.628 180.049 11.628C181.563 11.628 182.918 11.9587 184.113 12.62C185.307 13.26 186.246 14.188 186.929 15.404C187.633 16.62 187.985 18.0707 187.985 19.756C187.985 21.4413 187.654 22.9027 186.993 24.14C186.353 25.356 185.435 26.3053 184.241 26.988C183.067 27.6493 181.67 27.98 180.049 27.98ZM180.049 27.34C180.795 27.34 181.393 27.1267 181.841 26.7C182.289 26.2733 182.609 25.516 182.801 24.428C183.014 23.34 183.121 21.804 183.121 19.82C183.121 17.8147 183.014 16.268 182.801 15.18C182.609 14.092 182.289 13.3347 181.841 12.908C181.393 12.4813 180.795 12.268 180.049 12.268C179.302 12.268 178.694 12.4813 178.225 12.908C177.777 13.3347 177.446 14.092 177.233 15.18C177.041 16.268 176.945 17.8147 176.945 19.82C176.945 21.804 177.041 23.34 177.233 24.428C177.446 25.516 177.777 26.2733 178.225 26.7C178.694 27.1267 179.302 27.34 180.049 27.34ZM188.361 27.5V27.18L188.745 27.052C189.513 26.796 189.897 26.2627 189.897 25.452V8.364C189.897 7.916 189.822 7.58533 189.673 7.372C189.524 7.15867 189.236 6.99866 188.809 6.892L188.329 6.764V6.444L193.961 5.068L194.473 5.356L194.345 9.868V13.868C195.092 13.2493 195.892 12.7267 196.745 12.3C197.62 11.852 198.58 11.628 199.625 11.628C201.012 11.628 202.11 12.0227 202.921 12.812C203.753 13.6013 204.169 14.8173 204.169 16.46V25.484C204.169 25.9107 204.254 26.252 204.425 26.508C204.596 26.764 204.894 26.956 205.321 27.084L205.577 27.18V27.5H198.089V27.18L198.473 27.084C199.241 26.828 199.625 26.284 199.625 25.452V15.404C199.625 14.5507 199.476 13.964 199.177 13.644C198.9 13.324 198.398 13.164 197.673 13.164C197.204 13.164 196.692 13.26 196.137 13.452C195.582 13.6227 195.017 13.932 194.441 14.38V25.516C194.441 26.348 194.825 26.8813 195.593 27.116L195.849 27.18V27.5H188.361ZM205.828 27.5V27.18L206.276 27.052C207.022 26.8387 207.396 26.316 207.396 25.484V15.468C207.396 14.9987 207.321 14.6573 207.172 14.444C207.022 14.2093 206.734 14.0493 206.308 13.964L205.828 13.836V13.516L211.3 11.66L211.62 11.98L211.876 13.9C212.622 13.2387 213.465 12.6947 214.404 12.268C215.342 11.8413 216.27 11.628 217.188 11.628C218.596 11.628 219.673 12.012 220.42 12.78C221.188 13.548 221.572 14.7213 221.572 16.3V25.516C221.572 26.348 221.977 26.8707 222.788 27.084L223.076 27.18V27.5H215.524V27.18L215.94 27.052C216.686 26.8173 217.06 26.2947 217.06 25.484V15.276C217.06 13.9107 216.377 13.228 215.012 13.228C214.073 13.228 213.049 13.6973 211.94 14.636V25.516C211.94 26.348 212.313 26.8707 213.06 27.084L213.348 27.18V27.5H205.828Z" fill="#121212"/>
<path d="M61.9 43.5V36.94H62.73V43.5H61.9ZM65.727 43.5V36.94H66.587L68.957 41.06L69.667 42.42H69.707C69.687 42.0867 69.6636 41.7433 69.637 41.39C69.617 41.03 69.607 40.6767 69.607 40.33V36.94H70.397V43.5H69.537L67.157 39.37L66.447 38.02H66.407C66.4336 38.3533 66.457 38.6933 66.477 39.04C66.5036 39.38 66.517 39.7233 66.517 40.07V43.5H65.727ZM74.6216 43.62C73.8016 43.62 73.1982 43.27 72.8116 42.57L73.4116 42.15C73.5582 42.41 73.7249 42.6 73.9116 42.72C74.0982 42.8333 74.3082 42.89 74.5416 42.89C74.8949 42.89 75.1582 42.7833 75.3316 42.57C75.5049 42.35 75.5916 41.99 75.5916 41.49V36.94H76.4316V41.57C76.4316 41.85 76.3949 42.1167 76.3216 42.37C76.2549 42.6167 76.1482 42.8333 76.0016 43.02C75.8616 43.2067 75.6749 43.3533 75.4416 43.46C75.2149 43.5667 74.9416 43.62 74.6216 43.62ZM81.7363 43.62C81.4029 43.62 81.0896 43.5733 80.7963 43.48C80.5096 43.38 80.2596 43.22 80.0463 43C79.8396 42.7733 79.6763 42.48 79.5563 42.12C79.4363 41.76 79.3763 41.3167 79.3763 40.79V36.94H80.2063V40.81C80.2063 41.2033 80.2463 41.5333 80.3263 41.8C80.4063 42.0667 80.5129 42.28 80.6463 42.44C80.7863 42.6 80.9496 42.7167 81.1363 42.79C81.3229 42.8567 81.5229 42.89 81.7363 42.89C81.9563 42.89 82.1596 42.8567 82.3463 42.79C82.5329 42.7167 82.6963 42.6 82.8363 42.44C82.9763 42.28 83.0863 42.0667 83.1663 41.8C83.2463 41.5333 83.2863 41.2033 83.2863 40.81V36.94H84.0863V40.79C84.0863 41.3167 84.0263 41.76 83.9063 42.12C83.7863 42.48 83.6196 42.7733 83.4063 43C83.1996 43.22 82.9529 43.38 82.6663 43.48C82.3796 43.5733 82.0696 43.62 81.7363 43.62ZM87.0516 43.5V36.94H89.1016C89.4349 36.94 89.7416 36.9733 90.0216 37.04C90.3082 37.1 90.5516 37.2033 90.7516 37.35C90.9582 37.4967 91.1182 37.6867 91.2316 37.92C91.3449 38.1533 91.4016 38.44 91.4016 38.78C91.4016 39.2933 91.2682 39.7033 91.0016 40.01C90.7349 40.3167 90.3749 40.5267 89.9216 40.64L91.5916 43.5H90.6516L89.0716 40.73H87.8816V43.5H87.0516ZM87.8816 40.05H88.9816C89.4949 40.05 89.8882 39.9467 90.1616 39.74C90.4349 39.5267 90.5716 39.2067 90.5716 38.78C90.5716 38.3467 90.4349 38.0433 90.1616 37.87C89.8882 37.6967 89.4949 37.61 88.9816 37.61H87.8816V40.05ZM95.0049 43.5V40.96L93.0349 36.94H93.9249L94.7749 38.79C94.8816 39.03 94.9849 39.2667 95.0849 39.5C95.1849 39.7333 95.2916 39.9733 95.4049 40.22H95.4449C95.5583 39.9733 95.6716 39.7333 95.7849 39.5C95.8983 39.2667 96.0049 39.03 96.1049 38.79L96.9449 36.94H97.8149L95.8449 40.96V43.5H95.0049ZM104.523 43.62C104.223 43.62 103.949 43.5767 103.703 43.49C103.463 43.3967 103.253 43.27 103.073 43.11C102.899 42.95 102.763 42.76 102.663 42.54C102.569 42.3133 102.523 42.0667 102.523 41.8C102.523 41.58 102.556 41.38 102.623 41.2C102.696 41.02 102.793 40.8533 102.913 40.7C103.033 40.5467 103.169 40.4067 103.323 40.28C103.483 40.1467 103.646 40.0233 103.813 39.91C103.679 39.6367 103.573 39.3733 103.493 39.12C103.419 38.86 103.383 38.61 103.383 38.37C103.383 38.15 103.419 37.9467 103.493 37.76C103.566 37.5733 103.669 37.41 103.803 37.27C103.936 37.13 104.096 37.02 104.283 36.94C104.469 36.86 104.676 36.82 104.903 36.82C105.309 36.82 105.626 36.94 105.853 37.18C106.079 37.42 106.193 37.7333 106.193 38.12C106.193 38.3333 106.149 38.53 106.063 38.71C105.976 38.89 105.863 39.06 105.723 39.22C105.583 39.3733 105.423 39.52 105.243 39.66C105.069 39.7933 104.893 39.9267 104.713 40.06C104.926 40.4 105.176 40.7267 105.463 41.04C105.756 41.3533 106.059 41.64 106.373 41.9C106.573 41.6267 106.749 41.33 106.903 41.01C107.063 40.69 107.193 40.34 107.293 39.96H108.063C107.929 40.3933 107.769 40.8067 107.583 41.2C107.396 41.5933 107.173 41.9633 106.913 42.31C107.139 42.4633 107.356 42.5933 107.563 42.7C107.769 42.8067 107.963 42.8867 108.143 42.94L107.923 43.62C107.689 43.5533 107.446 43.46 107.193 43.34C106.939 43.2133 106.679 43.0567 106.413 42.87C106.159 43.0967 105.876 43.28 105.563 43.42C105.256 43.5533 104.909 43.62 104.523 43.62ZM104.093 38.36C104.093 38.54 104.119 38.7267 104.173 38.92C104.233 39.1133 104.309 39.31 104.403 39.51C104.549 39.41 104.689 39.31 104.823 39.21C104.963 39.1033 105.083 38.9967 105.183 38.89C105.289 38.7767 105.373 38.66 105.433 38.54C105.493 38.4133 105.523 38.2767 105.523 38.13C105.523 37.9367 105.473 37.77 105.373 37.63C105.279 37.4833 105.123 37.41 104.903 37.41C104.656 37.41 104.459 37.5 104.313 37.68C104.166 37.86 104.093 38.0867 104.093 38.36ZM104.613 42.96C104.839 42.96 105.056 42.9133 105.263 42.82C105.469 42.7267 105.669 42.5967 105.863 42.43C105.543 42.15 105.233 41.8467 104.933 41.52C104.639 41.1867 104.376 40.84 104.143 40.48C103.909 40.6667 103.713 40.8633 103.553 41.07C103.399 41.27 103.323 41.4967 103.323 41.75C103.323 41.93 103.356 42.0967 103.423 42.25C103.489 42.3967 103.579 42.5233 103.693 42.63C103.813 42.7367 103.949 42.82 104.103 42.88C104.263 42.9333 104.433 42.96 104.613 42.96ZM114.728 39.83L114.418 40.83H116.388L116.078 39.83C115.958 39.4633 115.845 39.1 115.738 38.74C115.632 38.3733 115.525 38 115.418 37.62H115.378C115.278 38 115.175 38.3733 115.068 38.74C114.962 39.1 114.848 39.4633 114.728 39.83ZM112.728 43.5L114.948 36.94H115.888L118.108 43.5H117.218L116.598 41.5H114.208L113.578 43.5H112.728ZM122.62 43.62C122.207 43.62 121.827 43.5433 121.48 43.39C121.134 43.2367 120.83 43.0167 120.57 42.73C120.317 42.4367 120.117 42.08 119.97 41.66C119.83 41.2333 119.76 40.7533 119.76 40.22C119.76 39.6933 119.834 39.22 119.98 38.8C120.127 38.38 120.33 38.0233 120.59 37.73C120.85 37.4367 121.157 37.2133 121.51 37.06C121.864 36.9 122.25 36.82 122.67 36.82C123.07 36.82 123.42 36.9033 123.72 37.07C124.027 37.23 124.277 37.4167 124.47 37.63L124.02 38.17C123.847 37.9833 123.65 37.8333 123.43 37.72C123.21 37.6067 122.96 37.55 122.68 37.55C122.367 37.55 122.084 37.6133 121.83 37.74C121.577 37.86 121.36 38.0367 121.18 38.27C121 38.4967 120.86 38.7733 120.76 39.1C120.667 39.4267 120.62 39.7933 120.62 40.2C120.62 40.6133 120.667 40.9867 120.76 41.32C120.86 41.6467 120.997 41.9267 121.17 42.16C121.344 42.3933 121.554 42.5733 121.8 42.7C122.054 42.8267 122.337 42.89 122.65 42.89C122.97 42.89 123.25 42.8267 123.49 42.7C123.73 42.5667 123.957 42.3833 124.17 42.15L124.63 42.67C124.37 42.97 124.077 43.2033 123.75 43.37C123.424 43.5367 123.047 43.62 122.62 43.62ZM129.24 43.62C128.827 43.62 128.447 43.5433 128.1 43.39C127.753 43.2367 127.45 43.0167 127.19 42.73C126.937 42.4367 126.737 42.08 126.59 41.66C126.45 41.2333 126.38 40.7533 126.38 40.22C126.38 39.6933 126.453 39.22 126.6 38.8C126.747 38.38 126.95 38.0233 127.21 37.73C127.47 37.4367 127.777 37.2133 128.13 37.06C128.483 36.9 128.87 36.82 129.29 36.82C129.69 36.82 130.04 36.9033 130.34 37.07C130.647 37.23 130.897 37.4167 131.09 37.63L130.64 38.17C130.467 37.9833 130.27 37.8333 130.05 37.72C129.83 37.6067 129.58 37.55 129.3 37.55C128.987 37.55 128.703 37.6133 128.45 37.74C128.197 37.86 127.98 38.0367 127.8 38.27C127.62 38.4967 127.48 38.7733 127.38 39.1C127.287 39.4267 127.24 39.7933 127.24 40.2C127.24 40.6133 127.287 40.9867 127.38 41.32C127.48 41.6467 127.617 41.9267 127.79 42.16C127.963 42.3933 128.173 42.5733 128.42 42.7C128.673 42.8267 128.957 42.89 129.27 42.89C129.59 42.89 129.87 42.8267 130.11 42.7C130.35 42.5667 130.577 42.3833 130.79 42.15L131.25 42.67C130.99 42.97 130.697 43.2033 130.37 43.37C130.043 43.5367 129.667 43.62 129.24 43.62ZM133.673 43.5V36.94H134.503V43.5H133.673ZM137.5 43.5V36.94H139.14C140.153 36.94 140.923 37.22 141.45 37.78C141.977 38.34 142.24 39.1433 142.24 40.19C142.24 40.71 142.173 41.1767 142.04 41.59C141.907 41.9967 141.71 42.3433 141.45 42.63C141.19 42.91 140.87 43.1267 140.49 43.28C140.11 43.4267 139.673 43.5 139.18 43.5H137.5ZM138.33 42.82H139.08C139.847 42.82 140.42 42.59 140.8 42.13C141.187 41.67 141.38 41.0233 141.38 40.19C141.38 39.3567 141.187 38.72 140.8 38.28C140.42 37.84 139.847 37.62 139.08 37.62H138.33V42.82ZM144.852 43.5V36.94H148.632V37.64H145.682V39.7H148.172V40.41H145.682V42.79H148.732V43.5H144.852ZM151.326 43.5V36.94H152.186L154.556 41.06L155.266 42.42H155.306C155.286 42.0867 155.262 41.7433 155.236 41.39C155.216 41.03 155.206 40.6767 155.206 40.33V36.94H155.996V43.5H155.136L152.756 39.37L152.046 38.02H152.006C152.032 38.3533 152.056 38.6933 152.076 39.04C152.102 39.38 152.116 39.7233 152.116 40.07V43.5H151.326ZM160.36 43.5V37.64H158.38V36.94H163.18V37.64H161.2V43.5H160.36ZM168.764 43.5V36.94H169.594V42.79H172.464V43.5H168.764ZM175.986 39.83L175.676 40.83H177.646L177.336 39.83C177.216 39.4633 177.103 39.1 176.996 38.74C176.89 38.3733 176.783 38 176.676 37.62H176.636C176.536 38 176.433 38.3733 176.326 38.74C176.22 39.1 176.106 39.4633 175.986 39.83ZM173.986 43.5L176.206 36.94H177.146L179.366 43.5H178.476L177.856 41.5H175.466L174.836 43.5H173.986ZM182.216 43.5L180.826 36.94H181.686L182.376 40.51C182.436 40.87 182.499 41.2233 182.566 41.57C182.632 41.9167 182.696 42.27 182.756 42.63H182.796C182.869 42.27 182.946 41.9167 183.026 41.57C183.106 41.2167 183.182 40.8633 183.256 40.51L184.166 36.94H184.926L185.836 40.51C185.916 40.8567 185.996 41.2067 186.076 41.56C186.156 41.9133 186.236 42.27 186.316 42.63H186.356C186.416 42.27 186.476 41.9167 186.536 41.57C186.596 41.2167 186.659 40.8633 186.726 40.51L187.416 36.94H188.216L186.856 43.5H185.856L184.866 39.55C184.806 39.2967 184.749 39.05 184.696 38.81C184.649 38.5633 184.599 38.3133 184.546 38.06H184.506C184.452 38.3133 184.396 38.5633 184.336 38.81C184.282 39.05 184.229 39.2967 184.176 39.55L183.206 43.5H182.216ZM191.617 43.5V40.96L189.647 36.94H190.537L191.387 38.79C191.494 39.03 191.597 39.2667 191.697 39.5C191.797 39.7333 191.904 39.9733 192.017 40.22H192.057C192.17 39.9733 192.284 39.7333 192.397 39.5C192.51 39.2667 192.617 39.03 192.717 38.79L193.557 36.94H194.427L192.457 40.96V43.5H191.617ZM196.513 43.5V36.94H200.293V37.64H197.343V39.7H199.833V40.41H197.343V42.79H200.393V43.5H196.513ZM202.986 43.5V36.94H205.036C205.37 36.94 205.676 36.9733 205.956 37.04C206.243 37.1 206.486 37.2033 206.686 37.35C206.893 37.4967 207.053 37.6867 207.166 37.92C207.28 38.1533 207.336 38.44 207.336 38.78C207.336 39.2933 207.203 39.7033 206.936 40.01C206.67 40.3167 206.31 40.5267 205.856 40.64L207.526 43.5H206.586L205.006 40.73H203.816V43.5H202.986ZM203.816 40.05H204.916C205.43 40.05 205.823 39.9467 206.096 39.74C206.37 39.5267 206.506 39.2067 206.506 38.78C206.506 38.3467 206.37 38.0433 206.096 37.87C205.823 37.6967 205.43 37.61 204.916 37.61H203.816V40.05ZM211.563 43.62C211.103 43.62 210.676 43.5333 210.283 43.36C209.89 43.1867 209.55 42.95 209.263 42.65L209.763 42.07C209.996 42.3167 210.27 42.5167 210.583 42.67C210.903 42.8167 211.233 42.89 211.573 42.89C212.006 42.89 212.343 42.7933 212.583 42.6C212.823 42.4 212.943 42.14 212.943 41.82C212.943 41.6533 212.913 41.5133 212.853 41.4C212.8 41.28 212.723 41.18 212.623 41.1C212.53 41.0133 212.416 40.9367 212.283 40.87C212.15 40.8033 212.006 40.7333 211.853 40.66L210.913 40.25C210.76 40.1833 210.603 40.1033 210.443 40.01C210.283 39.9167 210.14 39.8033 210.013 39.67C209.886 39.5367 209.783 39.38 209.703 39.2C209.623 39.0133 209.583 38.8 209.583 38.56C209.583 38.3133 209.633 38.0833 209.733 37.87C209.84 37.6567 209.983 37.4733 210.163 37.32C210.35 37.16 210.566 37.0367 210.813 36.95C211.066 36.8633 211.343 36.82 211.643 36.82C212.036 36.82 212.4 36.8967 212.733 37.05C213.066 37.1967 213.35 37.39 213.583 37.63L213.133 38.17C212.933 37.9767 212.71 37.8267 212.463 37.72C212.223 37.6067 211.95 37.55 211.643 37.55C211.276 37.55 210.98 37.6367 210.753 37.81C210.533 37.9767 210.423 38.21 210.423 38.51C210.423 38.67 210.453 38.8067 210.513 38.92C210.58 39.0267 210.666 39.1233 210.773 39.21C210.88 39.29 210.996 39.3633 211.123 39.43C211.25 39.49 211.38 39.5467 211.513 39.6L212.443 40C212.63 40.08 212.806 40.1733 212.973 40.28C213.14 40.38 213.283 40.5 213.403 40.64C213.523 40.7733 213.616 40.9333 213.683 41.12C213.756 41.3 213.793 41.51 213.793 41.75C213.793 42.01 213.74 42.2533 213.633 42.48C213.533 42.7067 213.386 42.9067 213.193 43.08C213 43.2467 212.766 43.38 212.493 43.48C212.22 43.5733 211.91 43.62 211.563 43.62Z" fill="#121212"/>
<rect y="0.5" width="48" height="48" fill="#981E25"/>
<path d="M6 34.62V34.3L6.64 34.076C7.36533 33.8413 7.728 33.2333 7.728 32.252V15.868C7.728 15.4413 7.67467 15.1 7.568 14.844C7.48267 14.588 7.23733 14.3747 6.832 14.204L6 13.82V13.5H12.176L18.096 28.988L23.664 13.5H29.968V13.82L29.456 14.012C29.0507 14.1613 28.7733 14.3747 28.624 14.652C28.4747 14.908 28.4 15.2493 28.4 15.676V32.412C28.4 32.8387 28.4533 33.1693 28.56 33.404C28.6667 33.6387 28.9227 33.8413 29.328 34.012L29.968 34.3V34.62H22V34.3L22.672 34.012C23.0773 33.8413 23.3333 33.6387 23.44 33.404C23.5467 33.1693 23.6 32.8387 23.6 32.412V25.212L23.664 16.06L16.976 34.62H15.376L8.4 16.284L8.496 24.252V32.316C8.496 32.7853 8.56 33.1693 8.688 33.468C8.83733 33.7453 9.11467 33.948 9.52 34.076L10.224 34.3V34.62H6Z" fill="white"/>
<path d="M33.1605 35.196C32.1152 35.196 31.3045 34.9933 30.7285 34.588C30.1738 34.1827 29.8965 33.6387 29.8965 32.956C29.8965 32.3587 30.0992 31.9 30.5045 31.58C30.9312 31.26 31.4218 31.1 31.9765 31.1C32.5312 31.1 33.0218 31.228 33.4485 31.484C33.8752 31.7187 34.2698 32.1347 34.6325 32.732L35.2085 33.724C35.3152 33.8733 35.4432 33.948 35.5925 33.948C35.7632 33.948 35.8805 33.852 35.9445 33.66C36.0725 33.2333 36.1578 32.6147 36.2005 31.804C36.2645 30.972 36.2965 29.9693 36.2965 28.796C36.2965 27.452 36.2645 25.724 36.2005 23.612C36.1365 21.5 36.0725 18.8973 36.0085 15.804C36.0085 14.8867 35.6672 14.3107 34.9845 14.076L34.2485 13.82V13.5H42.6325V13.82L41.9285 14.076C41.5445 14.2253 41.2778 14.428 41.1285 14.684C41.0005 14.9187 40.9365 15.26 40.9365 15.708V22.044C40.9365 24.1347 40.8405 25.8627 40.6485 27.228C40.4565 28.5933 40.1472 29.7773 39.7205 30.78C39.1872 32.2093 38.3125 33.308 37.0965 34.076C35.9018 34.8227 34.5898 35.196 33.1605 35.196Z" fill="white"/>
</svg>
